<?xml version="1.0" standalone="no"?>
 <!DOCTYPE svg PUBLIC "-//W3C//DTD SVG 1.1//EN" 
 "http://www.w3.org/Graphics/SVG/1.1/DTD/svg11.dtd"> 
<svg xmlns="http://www.w3.org/2000/svg" version="1.1" 
    width="2.0955cm" height="2.89306cm" viewBox="0 0 8250 11390 ">
<title>SVG Picture created as XL7105-SY-B-Breakout-B.SilkS.svg date 2018/05/11 12:12:43 </title>
  <desc>Picture generated by PCBNEW </desc>
<g style="fill:#000000; fill-opacity:1;stroke:#000000; stroke-opacity:1;
stroke-linecap:round; stroke-linejoin:round; "
 transform="translate(0 0) scale(1 1)">
</g>
<g style="fill:#840084; fill-opacity:0.0; 
stroke:#840084; stroke-width:-0.000393701; stroke-opacity:1; 
stroke-linecap:round; stroke-linejoin:round;">
</g>
<g style="fill:#840084; fill-opacity:0.0; 
stroke:#840084; stroke-width:98.4252; stroke-opacity:1; 
stroke-linecap:round; stroke-linejoin:round;">
<path d="M4846 6087
L4753 6350
L4659 6087
" />
<path d="M4303 6350
L4528 6350
" />
<path d="M4415 6350
L4415 5956
L4453 6012
L4490 6050
L4528 6069
" />
<path d="M4134 6312
L4115 6331
L4134 6350
L4153 6331
L4134 6312
L4134 6350
" />
<path d="M3871 5956
L3834 5956
L3796 5975
L3778 5994
L3759 6031
L3740 6106
L3740 6200
L3759 6275
L3778 6312
L3796 6331
L3834 6350
L3871 6350
L3909 6331
L3928 6312
L3946 6275
L3965 6200
L3965 6106
L3946 6031
L3928 5994
L3909 5975
L3871 5956
" />
</g>
<g style="fill:#840084; fill-opacity:0.0; 
stroke:#840084; stroke-width:118.11; stroke-opacity:1; 
stroke-linecap:round; stroke-linejoin:round;">
<path d="M7400 3870
L7007 4461
" />
<path d="M7007 3870
L7400 4461
" />
<path d="M6500 4461
L6782 4461
L6782 3870
" />
<path d="M6360 3870
L5966 3870
L6219 4461
" />
<path d="M5432 4461
L5769 4461
" />
<path d="M5601 4461
L5601 3870
L5657 3954
L5713 4011
L5769 4039
" />
<path d="M5066 3870
L5010 3870
L4954 3898
L4926 3926
L4897 3982
L4869 4095
L4869 4236
L4897 4348
L4926 4404
L4954 4432
L5010 4461
L5066 4461
L5122 4432
L5151 4404
L5179 4348
L5207 4236
L5207 4095
L5179 3982
L5151 3926
L5122 3898
L5066 3870
" />
<path d="M4335 3870
L4616 3870
L4644 4151
L4616 4123
L4560 4095
L4419 4095
L4363 4123
L4335 4151
L4307 4207
L4307 4348
L4335 4404
L4363 4432
L4419 4461
L4560 4461
L4616 4432
L4644 4404
" />
<path d="M4054 4236
L3604 4236
" />
<path d="M3351 4432
L3266 4461
L3126 4461
L3070 4432
L3041 4404
L3013 4348
L3013 4292
L3041 4236
L3070 4207
L3126 4179
L3238 4151
L3295 4123
L3323 4095
L3351 4039
L3351 3982
L3323 3926
L3295 3898
L3238 3870
L3098 3870
L3013 3898
" />
<path d="M2648 4179
L2648 4461
" />
<path d="M2845 3870
L2648 4179
L2451 3870
" />
<path d="M2254 4236
L1804 4236
" />
<path d="M1326 4151
L1242 4179
L1214 4207
L1185 4264
L1185 4348
L1214 4404
L1242 4432
L1298 4461
L1523 4461
L1523 3870
L1326 3870
L1270 3898
L1242 3926
L1214 3982
L1214 4039
L1242 4095
L1270 4123
L1326 4151
L1523 4151
" />
<path d="M5882 5155
L5797 5183
L5769 5211
L5741 5268
L5741 5352
L5769 5408
L5797 5436
L5854 5464
L6079 5464
L6079 4874
L5882 4874
L5825 4902
L5797 4930
L5769 4986
L5769 5043
L5797 5099
L5825 5127
L5882 5155
L6079 5155
" />
<path d="M5488 5464
L5488 5071
" />
<path d="M5488 5183
L5460 5127
L5432 5099
L5376 5071
L5319 5071
" />
<path d="M4897 5436
L4954 5464
L5066 5464
L5122 5436
L5151 5380
L5151 5155
L5122 5099
L5066 5071
L4954 5071
L4897 5099
L4869 5155
L4869 5211
L5151 5268
" />
<path d="M4363 5464
L4363 5155
L4391 5099
L4448 5071
L4560 5071
L4616 5099
" />
<path d="M4363 5436
L4419 5464
L4560 5464
L4616 5436
L4644 5380
L4644 5324
L4616 5268
L4560 5239
L4419 5239
L4363 5211
" />
<path d="M4082 5464
L4082 4874
" />
<path d="M4026 5239
L3857 5464
" />
<path d="M3857 5071
L4082 5296
" />
<path d="M3520 5464
L3576 5436
L3604 5408
L3632 5352
L3632 5183
L3604 5127
L3576 5099
L3520 5071
L3435 5071
L3379 5099
L3351 5127
L3323 5183
L3323 5352
L3351 5408
L3379 5436
L3435 5464
L3520 5464
" />
<path d="M2816 5071
L2816 5464
" />
<path d="M3070 5071
L3070 5380
L3041 5436
L2985 5464
L2901 5464
L2845 5436
L2816 5408
" />
<path d="M2620 5071
L2395 5071
" />
<path d="M2535 4874
L2535 5380
L2507 5436
L2451 5464
L2395 5464
" />
</g>
<g style="fill:#840084; fill-opacity:0.0; 
stroke:#840084; stroke-width:98.4252; stroke-opacity:1; 
stroke-linecap:round; stroke-linejoin:round;">
<path d="M1085 7957
L1066 7920
L1066 7864
L1085 7807
L1123 7770
L1160 7751
L1235 7732
L1291 7732
L1366 7751
L1404 7770
L1441 7807
L1460 7864
L1460 7901
L1441 7957
L1423 7976
L1291 7976
L1291 7901
" />
<path d="M1460 8145
L1066 8145
" />
<path d="M1066 8407
L1066 8482
L1085 8520
L1123 8557
L1198 8576
L1329 8576
L1404 8557
L1441 8520
L1460 8482
L1460 8407
L1441 8370
L1404 8332
L1329 8314
L1198 8314
L1123 8332
L1085 8370
L1066 8407
" />
<path d="M1460 8951
L1460 8726
" />
<path d="M1460 8839
L1066 8839
L1123 8801
L1160 8764
L1179 8726
" />
<path d="M2085 7957
L2066 7920
L2066 7864
L2085 7807
L2123 7770
L2160 7751
L2235 7732
L2291 7732
L2366 7751
L2404 7770
L2441 7807
L2460 7864
L2460 7901
L2441 7957
L2423 7976
L2291 7976
L2291 7901
" />
<path d="M2460 8145
L2066 8145
" />
<path d="M2066 8407
L2066 8482
L2085 8520
L2123 8557
L2198 8576
L2329 8576
L2404 8557
L2441 8520
L2460 8482
L2460 8407
L2441 8370
L2404 8332
L2329 8314
L2198 8314
L2123 8332
L2085 8370
L2066 8407
" />
<path d="M2104 8726
L2085 8745
L2066 8782
L2066 8876
L2085 8914
L2104 8932
L2141 8951
L2179 8951
L2235 8932
L2460 8707
L2460 8951
" />
<path d="M3441 7732
L3460 7789
L3460 7882
L3441 7920
L3423 7939
L3385 7957
L3348 7957
L3310 7939
L3291 7920
L3273 7882
L3254 7807
L3235 7770
L3216 7751
L3179 7732
L3141 7732
L3104 7751
L3085 7770
L3066 7807
L3066 7901
L3085 7957
" />
<path d="M3460 8126
L3066 8126
L3066 8220
L3085 8276
L3123 8314
L3160 8332
L3235 8351
L3291 8351
L3366 8332
L3404 8314
L3441 8276
L3460 8220
L3460 8126
" />
<path d="M3460 8520
L3066 8520
" />
<path d="M3066 8782
L3066 8857
L3085 8895
L3123 8932
L3198 8951
L3329 8951
L3404 8932
L3441 8895
L3460 8857
L3460 8782
L3441 8745
L3404 8707
L3329 8689
L3198 8689
L3123 8707
L3085 8745
L3066 8782
" />
<path d="M4441 7939
L4460 7995
L4460 8089
L4441 8126
L4423 8145
L4385 8164
L4348 8164
L4310 8145
L4291 8126
L4273 8089
L4254 8014
L4235 7976
L4216 7957
L4179 7939
L4141 7939
L4104 7957
L4085 7976
L4066 8014
L4066 8107
L4085 8164
" />
<path d="M4423 8557
L4441 8539
L4460 8482
L4460 8445
L4441 8389
L4404 8351
L4366 8332
L4291 8314
L4235 8314
L4160 8332
L4123 8351
L4085 8389
L4066 8445
L4066 8482
L4085 8539
L4104 8557
" />
<path d="M4460 8726
L4066 8726
" />
<path d="M4460 8951
L4235 8782
" />
<path d="M4066 8951
L4291 8726
" />
<path d="M5441 7957
L5460 8014
L5460 8107
L5441 8145
L5423 8164
L5385 8182
L5348 8182
L5310 8164
L5291 8145
L5273 8107
L5254 8032
L5235 7995
L5216 7976
L5179 7957
L5141 7957
L5104 7976
L5085 7995
L5066 8032
L5066 8126
L5085 8182
" />
<path d="M5423 8576
L5441 8557
L5460 8501
L5460 8464
L5441 8407
L5404 8370
L5366 8351
L5291 8332
L5235 8332
L5160 8351
L5123 8370
L5085 8407
L5066 8464
L5066 8501
L5085 8557
L5104 8576
" />
<path d="M5441 8726
L5460 8782
L5460 8876
L5441 8914
L5423 8932
L5385 8951
L5348 8951
L5310 8932
L5291 8914
L5273 8876
L5254 8801
L5235 8764
L5216 8745
L5179 8726
L5141 8726
L5104 8745
L5085 8764
L5066 8801
L5066 8895
L5085 8951
" />
<path d="M6085 8126
L6066 8089
L6066 8032
L6085 7976
L6123 7939
L6160 7920
L6235 7901
L6291 7901
L6366 7920
L6404 7939
L6441 7976
L6460 8032
L6460 8070
L6441 8126
L6423 8145
L6291 8145
L6291 8070
" />
<path d="M6460 8314
L6066 8314
L6460 8539
L6066 8539
" />
<path d="M6460 8726
L6066 8726
L6066 8820
L6085 8876
L6123 8914
L6160 8932
L6235 8951
L6291 8951
L6366 8932
L6404 8914
L6441 8876
L6460 8820
L6460 8726
" />
</g>
<g style="fill:#C2C200; fill-opacity:0.0; 
stroke:#C2C200; stroke-width:98.4252; stroke-opacity:1; 
stroke-linecap:round; stroke-linejoin:round;">
</g>
<g style="fill:#C2C200; fill-opacity:0.0; 
stroke:#C2C200; stroke-width:59.0551; stroke-opacity:1; 
stroke-linecap:round; stroke-linejoin:round;">
<path d="M347 10601
L8221 10601
" />
<path d="M347 2924
L347 10601
" />
<path d="M8221 2924
L347 2924
" />
<path d="M8221 10601
L8221 2924
" />
</g>
<g style="fill:#840084; fill-opacity:0.0; 
stroke:#840084; stroke-width:59.0551; stroke-opacity:1; 
stroke-linecap:round; stroke-linejoin:round;">
</g>
<g style="fill:#840084; fill-opacity:0.0; 
stroke:#840084; stroke-width:98.4252; stroke-opacity:1; 
stroke-linecap:round; stroke-linejoin:round;">
<path d="M7066 7995
L7066 8239
L7216 8107
L7216 8164
L7235 8201
L7254 8220
L7291 8239
L7385 8239
L7423 8220
L7441 8201
L7460 8164
L7460 8051
L7441 8014
L7423 7995
" />
<path d="M7066 8351
L7460 8482
L7066 8614
" />
<path d="M7066 8707
L7066 8951
L7216 8820
L7216 8876
L7235 8914
L7254 8932
L7291 8951
L7385 8951
L7423 8932
L7441 8914
L7460 8876
L7460 8764
L7441 8726
L7423 8707
" />
</g> 
</svg>
