<?xml version="1.0" standalone="no"?>
 <!DOCTYPE svg PUBLIC "-//W3C//DTD SVG 1.1//EN" 
 "http://www.w3.org/Graphics/SVG/1.1/DTD/svg11.dtd"> 
<svg xmlns="http://www.w3.org/2000/svg" version="1.1" 
    width="2.0955cm" height="2.89306cm" viewBox="0 0 8250 11390 ">
<title>SVG Picture created as XL7105-SY-B-Breakout-F.SilkS.svg date 2018/05/11 12:12:43 </title>
  <desc>Picture generated by PCBNEW </desc>
<g style="fill:#000000; fill-opacity:1;stroke:#000000; stroke-opacity:1;
stroke-linecap:round; stroke-linejoin:round; "
 transform="translate(0 0) scale(1 1)">
</g>
<g style="fill:#008484; fill-opacity:0.0; 
stroke:#008484; stroke-width:-0.000393701; stroke-opacity:1; 
stroke-linecap:round; stroke-linejoin:round;">
</g>
<g style="fill:#008484; fill-opacity:0.0; 
stroke:#008484; stroke-width:98.4252; stroke-opacity:1; 
stroke-linecap:round; stroke-linejoin:round;">
<path d="M4523 5056
L4710 5056
" />
<path d="M4485 5169
L4617 4775
L4748 5169
" />
<path d="M4842 4775
L5104 4775
L4935 5169
" />
<path d="M5460 5169
L5235 5169
" />
<path d="M5348 5169
L5348 4775
L5310 4831
L5273 4869
L5235 4887
" />
<path d="M5704 4775
L5742 4775
L5779 4794
L5798 4813
L5817 4850
L5835 4925
L5835 5019
L5817 5094
L5798 5131
L5779 5150
L5742 5169
L5704 5169
L5667 5150
L5648 5131
L5629 5094
L5610 5019
L5610 4925
L5629 4850
L5648 4813
L5667 4794
L5704 4775
" />
<path d="M6191 4775
L6004 4775
L5985 4962
L6004 4944
L6042 4925
L6135 4925
L6173 4944
L6191 4962
L6210 5000
L6210 5094
L6191 5131
L6173 5150
L6135 5169
L6042 5169
L6004 5150
L5985 5131
" />
</g>
<g style="fill:#008484; fill-opacity:0.0; 
stroke:#008484; stroke-width:78.7402; stroke-opacity:1; 
stroke-linecap:round; stroke-linejoin:round;">
<path d="M4678 5483
L4678 6861
" />
<path d="M6056 5483
L4678 5483
" />
<path d="M6056 6861
L6056 5483
" />
<path d="M4678 6861
L6056 6861
" />
<path d="M3300 4892
L3300 7254
" />
<path d="M2119 4892
L2119 7254
" />
<path d="M3300.16 4892.68 A590.551 590.551 0.0 0 0 2119.06 4892.68 " />
<path d="M2119.06 7254.88 A590.551 590.551 0.0 0 0 3300.16 7254.88 " />
</g>
<g style="fill:#C2C200; fill-opacity:0.0; 
stroke:#C2C200; stroke-width:78.7402; stroke-opacity:1; 
stroke-linecap:round; stroke-linejoin:round;">
</g>
<g style="fill:#C2C200; fill-opacity:0.0; 
stroke:#C2C200; stroke-width:59.0551; stroke-opacity:1; 
stroke-linecap:round; stroke-linejoin:round;">
<path d="M347 10601
L8221 10601
" />
<path d="M347 2924
L347 10601
" />
<path d="M8221 2924
L347 2924
" />
<path d="M8221 10601
L8221 2924
" />
</g>
<g style="fill:#008484; fill-opacity:0.0; 
stroke:#008484; stroke-width:59.0551; stroke-opacity:1; 
stroke-linecap:round; stroke-linejoin:round;">
<path d="M1134 3908
L1134 3121
" />
<path d="M7434 6270
L7434 5483
" />
<path d="M7434 7845
L7434 8877
" />
<path d="M1134 5483
L1134 4695
" />
<path d="M1134 7845
L1134 6270
" />
</g>
<g style="fill:#008484; fill-opacity:0.0; 
stroke:#008484; stroke-width:60; stroke-opacity:1; 
stroke-linecap:round; stroke-linejoin:round;">
<path d="M1128 8577
L1128 8877
" />
<path d="M1128 8877
L7428 8877
" />
</g> 
</svg>
