G04 #@! TF.FileFunction,Legend,Bot*
%FSLAX46Y46*%
G04 Gerber Fmt 4.6, Leading zero omitted, Abs format (unit mm)*
G04 Created by KiCad (PCBNEW 4.0.7) date Friday, 11 May 2018 'PMt' 12:15:21 PM*
%MOMM*%
%LPD*%
G01*
G04 APERTURE LIST*
%ADD10C,0.100000*%
%ADD11C,0.250000*%
%ADD12C,0.300000*%
G04 APERTURE END LIST*
D10*
D11*
X151428571Y-110035714D02*
X151190476Y-110702381D01*
X150952380Y-110035714D01*
X150047618Y-110702381D02*
X150619047Y-110702381D01*
X150333333Y-110702381D02*
X150333333Y-109702381D01*
X150428571Y-109845238D01*
X150523809Y-109940476D01*
X150619047Y-109988095D01*
X149619047Y-110607143D02*
X149571428Y-110654762D01*
X149619047Y-110702381D01*
X149666666Y-110654762D01*
X149619047Y-110607143D01*
X149619047Y-110702381D01*
X148952381Y-109702381D02*
X148857142Y-109702381D01*
X148761904Y-109750000D01*
X148714285Y-109797619D01*
X148666666Y-109892857D01*
X148619047Y-110083333D01*
X148619047Y-110321429D01*
X148666666Y-110511905D01*
X148714285Y-110607143D01*
X148761904Y-110654762D01*
X148857142Y-110702381D01*
X148952381Y-110702381D01*
X149047619Y-110654762D01*
X149095238Y-110607143D01*
X149142857Y-110511905D01*
X149190476Y-110321429D01*
X149190476Y-110083333D01*
X149142857Y-109892857D01*
X149095238Y-109797619D01*
X149047619Y-109750000D01*
X148952381Y-109702381D01*
D12*
X157915570Y-104403571D02*
X156915570Y-105903571D01*
X156915570Y-104403571D02*
X157915570Y-105903571D01*
X155629856Y-105903571D02*
X156344142Y-105903571D01*
X156344142Y-104403571D01*
X155272713Y-104403571D02*
X154272713Y-104403571D01*
X154915570Y-105903571D01*
X152915571Y-105903571D02*
X153772714Y-105903571D01*
X153344142Y-105903571D02*
X153344142Y-104403571D01*
X153486999Y-104617857D01*
X153629857Y-104760714D01*
X153772714Y-104832143D01*
X151987000Y-104403571D02*
X151844143Y-104403571D01*
X151701286Y-104475000D01*
X151629857Y-104546429D01*
X151558428Y-104689286D01*
X151487000Y-104975000D01*
X151487000Y-105332143D01*
X151558428Y-105617857D01*
X151629857Y-105760714D01*
X151701286Y-105832143D01*
X151844143Y-105903571D01*
X151987000Y-105903571D01*
X152129857Y-105832143D01*
X152201286Y-105760714D01*
X152272714Y-105617857D01*
X152344143Y-105332143D01*
X152344143Y-104975000D01*
X152272714Y-104689286D01*
X152201286Y-104546429D01*
X152129857Y-104475000D01*
X151987000Y-104403571D01*
X150129857Y-104403571D02*
X150844143Y-104403571D01*
X150915572Y-105117857D01*
X150844143Y-105046429D01*
X150701286Y-104975000D01*
X150344143Y-104975000D01*
X150201286Y-105046429D01*
X150129857Y-105117857D01*
X150058429Y-105260714D01*
X150058429Y-105617857D01*
X150129857Y-105760714D01*
X150201286Y-105832143D01*
X150344143Y-105903571D01*
X150701286Y-105903571D01*
X150844143Y-105832143D01*
X150915572Y-105760714D01*
X149415572Y-105332143D02*
X148272715Y-105332143D01*
X147629858Y-105832143D02*
X147415572Y-105903571D01*
X147058429Y-105903571D01*
X146915572Y-105832143D01*
X146844143Y-105760714D01*
X146772715Y-105617857D01*
X146772715Y-105475000D01*
X146844143Y-105332143D01*
X146915572Y-105260714D01*
X147058429Y-105189286D01*
X147344143Y-105117857D01*
X147487001Y-105046429D01*
X147558429Y-104975000D01*
X147629858Y-104832143D01*
X147629858Y-104689286D01*
X147558429Y-104546429D01*
X147487001Y-104475000D01*
X147344143Y-104403571D01*
X146987001Y-104403571D01*
X146772715Y-104475000D01*
X145844144Y-105189286D02*
X145844144Y-105903571D01*
X146344144Y-104403571D02*
X145844144Y-105189286D01*
X145344144Y-104403571D01*
X144844144Y-105332143D02*
X143701287Y-105332143D01*
X142487001Y-105117857D02*
X142272715Y-105189286D01*
X142201287Y-105260714D01*
X142129858Y-105403571D01*
X142129858Y-105617857D01*
X142201287Y-105760714D01*
X142272715Y-105832143D01*
X142415573Y-105903571D01*
X142987001Y-105903571D01*
X142987001Y-104403571D01*
X142487001Y-104403571D01*
X142344144Y-104475000D01*
X142272715Y-104546429D01*
X142201287Y-104689286D01*
X142201287Y-104832143D01*
X142272715Y-104975000D01*
X142344144Y-105046429D01*
X142487001Y-105117857D01*
X142987001Y-105117857D01*
X154058428Y-107667857D02*
X153844142Y-107739286D01*
X153772714Y-107810714D01*
X153701285Y-107953571D01*
X153701285Y-108167857D01*
X153772714Y-108310714D01*
X153844142Y-108382143D01*
X153987000Y-108453571D01*
X154558428Y-108453571D01*
X154558428Y-106953571D01*
X154058428Y-106953571D01*
X153915571Y-107025000D01*
X153844142Y-107096429D01*
X153772714Y-107239286D01*
X153772714Y-107382143D01*
X153844142Y-107525000D01*
X153915571Y-107596429D01*
X154058428Y-107667857D01*
X154558428Y-107667857D01*
X153058428Y-108453571D02*
X153058428Y-107453571D01*
X153058428Y-107739286D02*
X152987000Y-107596429D01*
X152915571Y-107525000D01*
X152772714Y-107453571D01*
X152629857Y-107453571D01*
X151558429Y-108382143D02*
X151701286Y-108453571D01*
X151987000Y-108453571D01*
X152129857Y-108382143D01*
X152201286Y-108239286D01*
X152201286Y-107667857D01*
X152129857Y-107525000D01*
X151987000Y-107453571D01*
X151701286Y-107453571D01*
X151558429Y-107525000D01*
X151487000Y-107667857D01*
X151487000Y-107810714D01*
X152201286Y-107953571D01*
X150201286Y-108453571D02*
X150201286Y-107667857D01*
X150272715Y-107525000D01*
X150415572Y-107453571D01*
X150701286Y-107453571D01*
X150844143Y-107525000D01*
X150201286Y-108382143D02*
X150344143Y-108453571D01*
X150701286Y-108453571D01*
X150844143Y-108382143D01*
X150915572Y-108239286D01*
X150915572Y-108096429D01*
X150844143Y-107953571D01*
X150701286Y-107882143D01*
X150344143Y-107882143D01*
X150201286Y-107810714D01*
X149487000Y-108453571D02*
X149487000Y-106953571D01*
X149344143Y-107882143D02*
X148915572Y-108453571D01*
X148915572Y-107453571D02*
X149487000Y-108025000D01*
X148058428Y-108453571D02*
X148201286Y-108382143D01*
X148272714Y-108310714D01*
X148344143Y-108167857D01*
X148344143Y-107739286D01*
X148272714Y-107596429D01*
X148201286Y-107525000D01*
X148058428Y-107453571D01*
X147844143Y-107453571D01*
X147701286Y-107525000D01*
X147629857Y-107596429D01*
X147558428Y-107739286D01*
X147558428Y-108167857D01*
X147629857Y-108310714D01*
X147701286Y-108382143D01*
X147844143Y-108453571D01*
X148058428Y-108453571D01*
X146272714Y-107453571D02*
X146272714Y-108453571D01*
X146915571Y-107453571D02*
X146915571Y-108239286D01*
X146844143Y-108382143D01*
X146701285Y-108453571D01*
X146487000Y-108453571D01*
X146344143Y-108382143D01*
X146272714Y-108310714D01*
X145772714Y-107453571D02*
X145201285Y-107453571D01*
X145558428Y-106953571D02*
X145558428Y-108239286D01*
X145487000Y-108382143D01*
X145344142Y-108453571D01*
X145201285Y-108453571D01*
D11*
X141875000Y-114785715D02*
X141827381Y-114690477D01*
X141827381Y-114547620D01*
X141875000Y-114404762D01*
X141970238Y-114309524D01*
X142065476Y-114261905D01*
X142255952Y-114214286D01*
X142398810Y-114214286D01*
X142589286Y-114261905D01*
X142684524Y-114309524D01*
X142779762Y-114404762D01*
X142827381Y-114547620D01*
X142827381Y-114642858D01*
X142779762Y-114785715D01*
X142732143Y-114833334D01*
X142398810Y-114833334D01*
X142398810Y-114642858D01*
X142827381Y-115261905D02*
X141827381Y-115261905D01*
X141827381Y-115928571D02*
X141827381Y-116119048D01*
X141875000Y-116214286D01*
X141970238Y-116309524D01*
X142160714Y-116357143D01*
X142494048Y-116357143D01*
X142684524Y-116309524D01*
X142779762Y-116214286D01*
X142827381Y-116119048D01*
X142827381Y-115928571D01*
X142779762Y-115833333D01*
X142684524Y-115738095D01*
X142494048Y-115690476D01*
X142160714Y-115690476D01*
X141970238Y-115738095D01*
X141875000Y-115833333D01*
X141827381Y-115928571D01*
X142827381Y-117309524D02*
X142827381Y-116738095D01*
X142827381Y-117023809D02*
X141827381Y-117023809D01*
X141970238Y-116928571D01*
X142065476Y-116833333D01*
X142113095Y-116738095D01*
X144415000Y-114785715D02*
X144367381Y-114690477D01*
X144367381Y-114547620D01*
X144415000Y-114404762D01*
X144510238Y-114309524D01*
X144605476Y-114261905D01*
X144795952Y-114214286D01*
X144938810Y-114214286D01*
X145129286Y-114261905D01*
X145224524Y-114309524D01*
X145319762Y-114404762D01*
X145367381Y-114547620D01*
X145367381Y-114642858D01*
X145319762Y-114785715D01*
X145272143Y-114833334D01*
X144938810Y-114833334D01*
X144938810Y-114642858D01*
X145367381Y-115261905D02*
X144367381Y-115261905D01*
X144367381Y-115928571D02*
X144367381Y-116119048D01*
X144415000Y-116214286D01*
X144510238Y-116309524D01*
X144700714Y-116357143D01*
X145034048Y-116357143D01*
X145224524Y-116309524D01*
X145319762Y-116214286D01*
X145367381Y-116119048D01*
X145367381Y-115928571D01*
X145319762Y-115833333D01*
X145224524Y-115738095D01*
X145034048Y-115690476D01*
X144700714Y-115690476D01*
X144510238Y-115738095D01*
X144415000Y-115833333D01*
X144367381Y-115928571D01*
X144462619Y-116738095D02*
X144415000Y-116785714D01*
X144367381Y-116880952D01*
X144367381Y-117119048D01*
X144415000Y-117214286D01*
X144462619Y-117261905D01*
X144557857Y-117309524D01*
X144653095Y-117309524D01*
X144795952Y-117261905D01*
X145367381Y-116690476D01*
X145367381Y-117309524D01*
X147859762Y-114214286D02*
X147907381Y-114357143D01*
X147907381Y-114595239D01*
X147859762Y-114690477D01*
X147812143Y-114738096D01*
X147716905Y-114785715D01*
X147621667Y-114785715D01*
X147526429Y-114738096D01*
X147478810Y-114690477D01*
X147431190Y-114595239D01*
X147383571Y-114404762D01*
X147335952Y-114309524D01*
X147288333Y-114261905D01*
X147193095Y-114214286D01*
X147097857Y-114214286D01*
X147002619Y-114261905D01*
X146955000Y-114309524D01*
X146907381Y-114404762D01*
X146907381Y-114642858D01*
X146955000Y-114785715D01*
X147907381Y-115214286D02*
X146907381Y-115214286D01*
X146907381Y-115452381D01*
X146955000Y-115595239D01*
X147050238Y-115690477D01*
X147145476Y-115738096D01*
X147335952Y-115785715D01*
X147478810Y-115785715D01*
X147669286Y-115738096D01*
X147764524Y-115690477D01*
X147859762Y-115595239D01*
X147907381Y-115452381D01*
X147907381Y-115214286D01*
X147907381Y-116214286D02*
X146907381Y-116214286D01*
X146907381Y-116880952D02*
X146907381Y-117071429D01*
X146955000Y-117166667D01*
X147050238Y-117261905D01*
X147240714Y-117309524D01*
X147574048Y-117309524D01*
X147764524Y-117261905D01*
X147859762Y-117166667D01*
X147907381Y-117071429D01*
X147907381Y-116880952D01*
X147859762Y-116785714D01*
X147764524Y-116690476D01*
X147574048Y-116642857D01*
X147240714Y-116642857D01*
X147050238Y-116690476D01*
X146955000Y-116785714D01*
X146907381Y-116880952D01*
X150399762Y-114738095D02*
X150447381Y-114880952D01*
X150447381Y-115119048D01*
X150399762Y-115214286D01*
X150352143Y-115261905D01*
X150256905Y-115309524D01*
X150161667Y-115309524D01*
X150066429Y-115261905D01*
X150018810Y-115214286D01*
X149971190Y-115119048D01*
X149923571Y-114928571D01*
X149875952Y-114833333D01*
X149828333Y-114785714D01*
X149733095Y-114738095D01*
X149637857Y-114738095D01*
X149542619Y-114785714D01*
X149495000Y-114833333D01*
X149447381Y-114928571D01*
X149447381Y-115166667D01*
X149495000Y-115309524D01*
X150352143Y-116309524D02*
X150399762Y-116261905D01*
X150447381Y-116119048D01*
X150447381Y-116023810D01*
X150399762Y-115880952D01*
X150304524Y-115785714D01*
X150209286Y-115738095D01*
X150018810Y-115690476D01*
X149875952Y-115690476D01*
X149685476Y-115738095D01*
X149590238Y-115785714D01*
X149495000Y-115880952D01*
X149447381Y-116023810D01*
X149447381Y-116119048D01*
X149495000Y-116261905D01*
X149542619Y-116309524D01*
X150447381Y-116738095D02*
X149447381Y-116738095D01*
X150447381Y-117309524D02*
X149875952Y-116880952D01*
X149447381Y-117309524D02*
X150018810Y-116738095D01*
X152939762Y-114785714D02*
X152987381Y-114928571D01*
X152987381Y-115166667D01*
X152939762Y-115261905D01*
X152892143Y-115309524D01*
X152796905Y-115357143D01*
X152701667Y-115357143D01*
X152606429Y-115309524D01*
X152558810Y-115261905D01*
X152511190Y-115166667D01*
X152463571Y-114976190D01*
X152415952Y-114880952D01*
X152368333Y-114833333D01*
X152273095Y-114785714D01*
X152177857Y-114785714D01*
X152082619Y-114833333D01*
X152035000Y-114880952D01*
X151987381Y-114976190D01*
X151987381Y-115214286D01*
X152035000Y-115357143D01*
X152892143Y-116357143D02*
X152939762Y-116309524D01*
X152987381Y-116166667D01*
X152987381Y-116071429D01*
X152939762Y-115928571D01*
X152844524Y-115833333D01*
X152749286Y-115785714D01*
X152558810Y-115738095D01*
X152415952Y-115738095D01*
X152225476Y-115785714D01*
X152130238Y-115833333D01*
X152035000Y-115928571D01*
X151987381Y-116071429D01*
X151987381Y-116166667D01*
X152035000Y-116309524D01*
X152082619Y-116357143D01*
X152939762Y-116738095D02*
X152987381Y-116880952D01*
X152987381Y-117119048D01*
X152939762Y-117214286D01*
X152892143Y-117261905D01*
X152796905Y-117309524D01*
X152701667Y-117309524D01*
X152606429Y-117261905D01*
X152558810Y-117214286D01*
X152511190Y-117119048D01*
X152463571Y-116928571D01*
X152415952Y-116833333D01*
X152368333Y-116785714D01*
X152273095Y-116738095D01*
X152177857Y-116738095D01*
X152082619Y-116785714D01*
X152035000Y-116833333D01*
X151987381Y-116928571D01*
X151987381Y-117166667D01*
X152035000Y-117309524D01*
X154575000Y-115214286D02*
X154527381Y-115119048D01*
X154527381Y-114976191D01*
X154575000Y-114833333D01*
X154670238Y-114738095D01*
X154765476Y-114690476D01*
X154955952Y-114642857D01*
X155098810Y-114642857D01*
X155289286Y-114690476D01*
X155384524Y-114738095D01*
X155479762Y-114833333D01*
X155527381Y-114976191D01*
X155527381Y-115071429D01*
X155479762Y-115214286D01*
X155432143Y-115261905D01*
X155098810Y-115261905D01*
X155098810Y-115071429D01*
X155527381Y-115690476D02*
X154527381Y-115690476D01*
X155527381Y-116261905D01*
X154527381Y-116261905D01*
X155527381Y-116738095D02*
X154527381Y-116738095D01*
X154527381Y-116976190D01*
X154575000Y-117119048D01*
X154670238Y-117214286D01*
X154765476Y-117261905D01*
X154955952Y-117309524D01*
X155098810Y-117309524D01*
X155289286Y-117261905D01*
X155384524Y-117214286D01*
X155479762Y-117119048D01*
X155527381Y-116976190D01*
X155527381Y-116738095D01*
X157067381Y-114880952D02*
X157067381Y-115500000D01*
X157448333Y-115166666D01*
X157448333Y-115309524D01*
X157495952Y-115404762D01*
X157543571Y-115452381D01*
X157638810Y-115500000D01*
X157876905Y-115500000D01*
X157972143Y-115452381D01*
X158019762Y-115404762D01*
X158067381Y-115309524D01*
X158067381Y-115023809D01*
X158019762Y-114928571D01*
X157972143Y-114880952D01*
X157067381Y-115785714D02*
X158067381Y-116119047D01*
X157067381Y-116452381D01*
X157067381Y-116690476D02*
X157067381Y-117309524D01*
X157448333Y-116976190D01*
X157448333Y-117119048D01*
X157495952Y-117214286D01*
X157543571Y-117261905D01*
X157638810Y-117309524D01*
X157876905Y-117309524D01*
X157972143Y-117261905D01*
X158019762Y-117214286D01*
X158067381Y-117119048D01*
X158067381Y-116833333D01*
X158019762Y-116738095D01*
X157972143Y-116690476D01*
M02*
