G04 #@! TF.FileFunction,Copper,L1,Top,Signal*
%FSLAX46Y46*%
G04 Gerber Fmt 4.6, Leading zero omitted, Abs format (unit mm)*
G04 Created by KiCad (PCBNEW 4.0.7) date Friday, 11 May 2018 'PMt' 12:15:21 PM*
%MOMM*%
%LPD*%
G01*
G04 APERTURE LIST*
%ADD10C,0.100000*%
%ADD11R,2.500000X1.100000*%
%ADD12R,1.700000X1.700000*%
%ADD13O,1.700000X1.700000*%
%ADD14C,0.685800*%
%ADD15C,0.250000*%
%ADD16C,0.300000*%
%ADD17C,0.500000*%
%ADD18C,0.152400*%
%ADD19C,0.254000*%
G04 APERTURE END LIST*
D10*
D11*
X142300000Y-105500000D03*
X142300000Y-109500000D03*
X142300000Y-115500000D03*
X157700000Y-113500000D03*
X157700000Y-111500000D03*
X157700000Y-107500000D03*
X157700000Y-105500000D03*
X157700000Y-103500000D03*
D12*
X142375000Y-119500000D03*
D13*
X144915000Y-119500000D03*
X147455000Y-119500000D03*
X149995000Y-119500000D03*
X152535000Y-119500000D03*
X155075000Y-119500000D03*
X157615000Y-119500000D03*
D14*
X144500000Y-106500000D03*
X145000000Y-111000000D03*
X148500000Y-111500000D03*
X149500000Y-112500000D03*
X152750000Y-112250000D03*
X141500000Y-107500000D03*
X141500000Y-111500000D03*
X141500000Y-113250000D03*
X141500000Y-117250000D03*
X148500000Y-106500000D03*
X141500000Y-103000000D03*
X143250000Y-103000000D03*
X145000000Y-103000000D03*
X146750000Y-103000000D03*
X148500000Y-103000000D03*
X150250000Y-103000000D03*
X152000000Y-103000000D03*
X153750000Y-103000000D03*
X155500000Y-103000000D03*
X155500000Y-109500000D03*
X158750000Y-109500000D03*
X158750000Y-116750000D03*
X158750000Y-115000000D03*
X155500000Y-111500000D03*
X153800000Y-115500000D03*
X146200000Y-115500000D03*
X150500000Y-113500000D03*
D15*
X143000000Y-105500000D02*
X143500000Y-105500000D01*
D16*
X143500000Y-105500000D02*
X144500000Y-106500000D01*
X143500000Y-109500000D02*
X145000000Y-111000000D01*
D15*
X143000000Y-109500000D02*
X143500000Y-109500000D01*
D16*
X149500000Y-111500000D02*
X148500000Y-111500000D01*
X155500000Y-105500000D02*
X149500000Y-111500000D01*
X155500000Y-104500000D02*
X155500000Y-105500000D01*
X156500000Y-103500000D02*
X155500000Y-104500000D01*
X157000000Y-103500000D02*
X156500000Y-103500000D01*
X157000000Y-105500000D02*
X156500000Y-105500000D01*
X156500000Y-105500000D02*
X149500000Y-112500000D01*
D17*
X157000000Y-111500000D02*
X155500000Y-111500000D01*
D16*
X155500000Y-111500000D02*
X153500000Y-111500000D01*
X153500000Y-111500000D02*
X152750000Y-112250000D01*
X141500000Y-113250000D02*
X141500000Y-111500000D01*
X143000000Y-115500000D02*
X143000000Y-115750000D01*
X143000000Y-115750000D02*
X141500000Y-117250000D01*
X141500000Y-103000000D02*
X145000000Y-103000000D01*
X145000000Y-103000000D02*
X148500000Y-106500000D01*
X145000000Y-103000000D02*
X143250000Y-103000000D01*
X148500000Y-103000000D02*
X146750000Y-103000000D01*
X152000000Y-103000000D02*
X150250000Y-103000000D01*
X155500000Y-103000000D02*
X153750000Y-103000000D01*
X158750000Y-109500000D02*
X155500000Y-109500000D01*
X158750000Y-115000000D02*
X158750000Y-116750000D01*
X153800000Y-115500000D02*
X153800000Y-113200000D01*
X153800000Y-113200000D02*
X155500000Y-111500000D01*
D17*
X143000000Y-115500000D02*
X146200000Y-115500000D01*
X157615000Y-119500000D02*
X157615000Y-114115000D01*
X157615000Y-114115000D02*
X157000000Y-113500000D01*
D16*
X150500000Y-112500000D02*
X150500000Y-113500000D01*
X155500000Y-107500000D02*
X150500000Y-112500000D01*
X157000000Y-107500000D02*
X155500000Y-107500000D01*
D18*
X157000000Y-107500000D02*
X156500000Y-107500000D01*
D19*
G36*
X159290000Y-120790000D02*
X158351197Y-120790000D01*
X158428131Y-120749780D01*
X158654000Y-120568177D01*
X158840294Y-120346161D01*
X158979916Y-120092189D01*
X159067549Y-119815934D01*
X159099855Y-119527919D01*
X159100000Y-119507185D01*
X159100000Y-119492815D01*
X159071718Y-119204377D01*
X158987951Y-118926925D01*
X158851888Y-118671029D01*
X158668713Y-118446433D01*
X158500000Y-118306862D01*
X158500000Y-114688072D01*
X158950000Y-114688072D01*
X159051121Y-114680008D01*
X159222634Y-114626894D01*
X159290000Y-114582503D01*
X159290000Y-120790000D01*
X159290000Y-120790000D01*
G37*
X159290000Y-120790000D02*
X158351197Y-120790000D01*
X158428131Y-120749780D01*
X158654000Y-120568177D01*
X158840294Y-120346161D01*
X158979916Y-120092189D01*
X159067549Y-119815934D01*
X159099855Y-119527919D01*
X159100000Y-119507185D01*
X159100000Y-119492815D01*
X159071718Y-119204377D01*
X158987951Y-118926925D01*
X158851888Y-118671029D01*
X158668713Y-118446433D01*
X158500000Y-118306862D01*
X158500000Y-114688072D01*
X158950000Y-114688072D01*
X159051121Y-114680008D01*
X159222634Y-114626894D01*
X159290000Y-114582503D01*
X159290000Y-120790000D01*
G36*
X155837190Y-102772237D02*
X155811928Y-102950000D01*
X155811928Y-103077914D01*
X154944921Y-103944921D01*
X154898885Y-104000966D01*
X154852286Y-104056501D01*
X154850298Y-104060117D01*
X154847677Y-104063308D01*
X154813394Y-104127245D01*
X154778479Y-104190756D01*
X154777232Y-104194688D01*
X154775280Y-104198328D01*
X154754089Y-104267641D01*
X154732154Y-104336789D01*
X154731693Y-104340897D01*
X154730488Y-104344839D01*
X154723164Y-104416944D01*
X154715077Y-104489040D01*
X154715020Y-104497109D01*
X154715005Y-104497260D01*
X154715018Y-104497400D01*
X154715000Y-104500000D01*
X154715000Y-105174842D01*
X149174842Y-110715000D01*
X149085036Y-110715000D01*
X148967364Y-110635629D01*
X148790572Y-110561313D01*
X148602713Y-110522751D01*
X148410942Y-110521412D01*
X148222562Y-110557347D01*
X148044750Y-110629188D01*
X147884279Y-110734198D01*
X147747260Y-110868376D01*
X147638913Y-111026613D01*
X147563364Y-111202882D01*
X147523492Y-111390467D01*
X147520814Y-111582225D01*
X147555433Y-111770850D01*
X147626031Y-111949159D01*
X147729918Y-112110360D01*
X147863137Y-112248312D01*
X148020613Y-112357761D01*
X148196350Y-112434539D01*
X148383652Y-112475720D01*
X148522261Y-112478623D01*
X148520814Y-112582225D01*
X148555433Y-112770850D01*
X148626031Y-112949159D01*
X148729918Y-113110360D01*
X148863137Y-113248312D01*
X149020613Y-113357761D01*
X149196350Y-113434539D01*
X149383652Y-113475720D01*
X149522261Y-113478623D01*
X149520814Y-113582225D01*
X149555433Y-113770850D01*
X149626031Y-113949159D01*
X149729918Y-114110360D01*
X149863137Y-114248312D01*
X150020613Y-114357761D01*
X150196350Y-114434539D01*
X150383652Y-114475720D01*
X150575387Y-114479736D01*
X150764249Y-114446434D01*
X150943047Y-114377083D01*
X151104969Y-114274325D01*
X151243848Y-114142072D01*
X151354394Y-113985363D01*
X151432396Y-113810167D01*
X151474884Y-113623156D01*
X151477942Y-113404112D01*
X151440693Y-113215988D01*
X151367613Y-113038682D01*
X151285000Y-112914341D01*
X151285000Y-112825158D01*
X153222700Y-110887458D01*
X155815000Y-110887458D01*
X155815000Y-111214250D01*
X155973750Y-111373000D01*
X157573000Y-111373000D01*
X157573000Y-110473750D01*
X157414250Y-110315000D01*
X156387458Y-110315000D01*
X156264777Y-110339403D01*
X156149215Y-110387270D01*
X156045211Y-110456763D01*
X155956763Y-110545211D01*
X155887270Y-110649215D01*
X155839403Y-110764777D01*
X155815000Y-110887458D01*
X153222700Y-110887458D01*
X155825158Y-108285000D01*
X155861452Y-108285000D01*
X155873106Y-108322634D01*
X155971900Y-108472559D01*
X156108550Y-108589025D01*
X156272237Y-108662810D01*
X156450000Y-108688072D01*
X158950000Y-108688072D01*
X159051121Y-108680008D01*
X159222634Y-108626894D01*
X159290000Y-108582503D01*
X159290000Y-110413473D01*
X159250785Y-110387270D01*
X159135223Y-110339403D01*
X159012542Y-110315000D01*
X157985750Y-110315000D01*
X157827000Y-110473750D01*
X157827000Y-111373000D01*
X157847000Y-111373000D01*
X157847000Y-111627000D01*
X157827000Y-111627000D01*
X157827000Y-111647000D01*
X157573000Y-111647000D01*
X157573000Y-111627000D01*
X155973750Y-111627000D01*
X155815000Y-111785750D01*
X155815000Y-112112542D01*
X155839403Y-112235223D01*
X155887270Y-112350785D01*
X155956763Y-112454789D01*
X156002793Y-112500819D01*
X155910975Y-112608550D01*
X155837190Y-112772237D01*
X155811928Y-112950000D01*
X155811928Y-114050000D01*
X155819992Y-114151121D01*
X155873106Y-114322634D01*
X155971900Y-114472559D01*
X156108550Y-114589025D01*
X156272237Y-114662810D01*
X156450000Y-114688072D01*
X156730000Y-114688072D01*
X156730000Y-118308004D01*
X156576000Y-118431823D01*
X156389706Y-118653839D01*
X156342400Y-118739889D01*
X156270178Y-118618645D01*
X156075269Y-118402412D01*
X155841920Y-118228359D01*
X155579099Y-118103175D01*
X155431890Y-118058524D01*
X155202000Y-118179845D01*
X155202000Y-119373000D01*
X155222000Y-119373000D01*
X155222000Y-119627000D01*
X155202000Y-119627000D01*
X155202000Y-119647000D01*
X154948000Y-119647000D01*
X154948000Y-119627000D01*
X154928000Y-119627000D01*
X154928000Y-119373000D01*
X154948000Y-119373000D01*
X154948000Y-118179845D01*
X154718110Y-118058524D01*
X154570901Y-118103175D01*
X154308080Y-118228359D01*
X154074731Y-118402412D01*
X153879822Y-118618645D01*
X153808077Y-118739090D01*
X153771888Y-118671029D01*
X153588713Y-118446433D01*
X153365401Y-118261694D01*
X153110461Y-118123848D01*
X152833601Y-118038146D01*
X152545367Y-118007851D01*
X152256739Y-118034118D01*
X151978709Y-118115947D01*
X151721869Y-118250220D01*
X151496000Y-118431823D01*
X151309706Y-118653839D01*
X151265502Y-118734247D01*
X151231888Y-118671029D01*
X151048713Y-118446433D01*
X150825401Y-118261694D01*
X150570461Y-118123848D01*
X150293601Y-118038146D01*
X150005367Y-118007851D01*
X149716739Y-118034118D01*
X149438709Y-118115947D01*
X149181869Y-118250220D01*
X148956000Y-118431823D01*
X148769706Y-118653839D01*
X148725502Y-118734247D01*
X148691888Y-118671029D01*
X148508713Y-118446433D01*
X148285401Y-118261694D01*
X148030461Y-118123848D01*
X147753601Y-118038146D01*
X147465367Y-118007851D01*
X147176739Y-118034118D01*
X146898709Y-118115947D01*
X146641869Y-118250220D01*
X146416000Y-118431823D01*
X146229706Y-118653839D01*
X146185502Y-118734247D01*
X146151888Y-118671029D01*
X145968713Y-118446433D01*
X145745401Y-118261694D01*
X145490461Y-118123848D01*
X145213601Y-118038146D01*
X144925367Y-118007851D01*
X144636739Y-118034118D01*
X144358709Y-118115947D01*
X144101869Y-118250220D01*
X143876000Y-118431823D01*
X143834189Y-118481651D01*
X143801894Y-118377366D01*
X143703100Y-118227441D01*
X143566450Y-118110975D01*
X143402763Y-118037190D01*
X143225000Y-118011928D01*
X141525000Y-118011928D01*
X141423879Y-118019992D01*
X141252366Y-118073106D01*
X141102441Y-118171900D01*
X140985975Y-118308550D01*
X140912190Y-118472237D01*
X140886928Y-118650000D01*
X140886928Y-120350000D01*
X140894992Y-120451121D01*
X140948106Y-120622634D01*
X141046900Y-120772559D01*
X141067364Y-120790000D01*
X140710000Y-120790000D01*
X140710000Y-116586527D01*
X140749215Y-116612730D01*
X140864777Y-116660597D01*
X140987458Y-116685000D01*
X142014250Y-116685000D01*
X142173000Y-116526250D01*
X142173000Y-115627000D01*
X142427000Y-115627000D01*
X142427000Y-116526250D01*
X142585750Y-116685000D01*
X143612542Y-116685000D01*
X143735223Y-116660597D01*
X143850785Y-116612730D01*
X143954789Y-116543237D01*
X144043237Y-116454789D01*
X144112730Y-116350785D01*
X144160597Y-116235223D01*
X144185000Y-116112542D01*
X144185000Y-115785750D01*
X144026250Y-115627000D01*
X142427000Y-115627000D01*
X142173000Y-115627000D01*
X142153000Y-115627000D01*
X142153000Y-115373000D01*
X142173000Y-115373000D01*
X142173000Y-114473750D01*
X142427000Y-114473750D01*
X142427000Y-115373000D01*
X144026250Y-115373000D01*
X144185000Y-115214250D01*
X144185000Y-114887458D01*
X144160597Y-114764777D01*
X144112730Y-114649215D01*
X144043237Y-114545211D01*
X143954789Y-114456763D01*
X143850785Y-114387270D01*
X143735223Y-114339403D01*
X143612542Y-114315000D01*
X142585750Y-114315000D01*
X142427000Y-114473750D01*
X142173000Y-114473750D01*
X142014250Y-114315000D01*
X140987458Y-114315000D01*
X140864777Y-114339403D01*
X140749215Y-114387270D01*
X140710000Y-114413473D01*
X140710000Y-110589679D01*
X140872237Y-110662810D01*
X141050000Y-110688072D01*
X143550000Y-110688072D01*
X143575852Y-110686010D01*
X144031772Y-111141930D01*
X144055433Y-111270850D01*
X144126031Y-111449159D01*
X144229918Y-111610360D01*
X144363137Y-111748312D01*
X144520613Y-111857761D01*
X144696350Y-111934539D01*
X144883652Y-111975720D01*
X145075387Y-111979736D01*
X145264249Y-111946434D01*
X145443047Y-111877083D01*
X145604969Y-111774325D01*
X145743848Y-111642072D01*
X145854394Y-111485363D01*
X145932396Y-111310167D01*
X145974884Y-111123156D01*
X145977942Y-110904112D01*
X145940693Y-110715988D01*
X145867613Y-110538682D01*
X145761485Y-110378948D01*
X145626353Y-110242869D01*
X145467364Y-110135629D01*
X145290572Y-110061313D01*
X145140708Y-110030550D01*
X144188072Y-109077914D01*
X144188072Y-108950000D01*
X144180008Y-108848879D01*
X144126894Y-108677366D01*
X144028100Y-108527441D01*
X143891450Y-108410975D01*
X143727763Y-108337190D01*
X143550000Y-108311928D01*
X141050000Y-108311928D01*
X140948879Y-108319992D01*
X140777366Y-108373106D01*
X140710000Y-108417497D01*
X140710000Y-106589679D01*
X140872237Y-106662810D01*
X141050000Y-106688072D01*
X143540240Y-106688072D01*
X143555433Y-106770850D01*
X143626031Y-106949159D01*
X143729918Y-107110360D01*
X143863137Y-107248312D01*
X144020613Y-107357761D01*
X144196350Y-107434539D01*
X144383652Y-107475720D01*
X144575387Y-107479736D01*
X144764249Y-107446434D01*
X144943047Y-107377083D01*
X145104969Y-107274325D01*
X145243848Y-107142072D01*
X145354394Y-106985363D01*
X145432396Y-106810167D01*
X145474884Y-106623156D01*
X145477942Y-106404112D01*
X145440693Y-106215988D01*
X145367613Y-106038682D01*
X145261485Y-105878948D01*
X145126353Y-105742869D01*
X144967364Y-105635629D01*
X144790572Y-105561313D01*
X144640708Y-105530550D01*
X144188072Y-105077914D01*
X144188072Y-104950000D01*
X144180008Y-104848879D01*
X144126894Y-104677366D01*
X144028100Y-104527441D01*
X143891450Y-104410975D01*
X143727763Y-104337190D01*
X143550000Y-104311928D01*
X141050000Y-104311928D01*
X140948879Y-104319992D01*
X140777366Y-104373106D01*
X140710000Y-104417497D01*
X140710000Y-102710000D01*
X155865245Y-102710000D01*
X155837190Y-102772237D01*
X155837190Y-102772237D01*
G37*
X155837190Y-102772237D02*
X155811928Y-102950000D01*
X155811928Y-103077914D01*
X154944921Y-103944921D01*
X154898885Y-104000966D01*
X154852286Y-104056501D01*
X154850298Y-104060117D01*
X154847677Y-104063308D01*
X154813394Y-104127245D01*
X154778479Y-104190756D01*
X154777232Y-104194688D01*
X154775280Y-104198328D01*
X154754089Y-104267641D01*
X154732154Y-104336789D01*
X154731693Y-104340897D01*
X154730488Y-104344839D01*
X154723164Y-104416944D01*
X154715077Y-104489040D01*
X154715020Y-104497109D01*
X154715005Y-104497260D01*
X154715018Y-104497400D01*
X154715000Y-104500000D01*
X154715000Y-105174842D01*
X149174842Y-110715000D01*
X149085036Y-110715000D01*
X148967364Y-110635629D01*
X148790572Y-110561313D01*
X148602713Y-110522751D01*
X148410942Y-110521412D01*
X148222562Y-110557347D01*
X148044750Y-110629188D01*
X147884279Y-110734198D01*
X147747260Y-110868376D01*
X147638913Y-111026613D01*
X147563364Y-111202882D01*
X147523492Y-111390467D01*
X147520814Y-111582225D01*
X147555433Y-111770850D01*
X147626031Y-111949159D01*
X147729918Y-112110360D01*
X147863137Y-112248312D01*
X148020613Y-112357761D01*
X148196350Y-112434539D01*
X148383652Y-112475720D01*
X148522261Y-112478623D01*
X148520814Y-112582225D01*
X148555433Y-112770850D01*
X148626031Y-112949159D01*
X148729918Y-113110360D01*
X148863137Y-113248312D01*
X149020613Y-113357761D01*
X149196350Y-113434539D01*
X149383652Y-113475720D01*
X149522261Y-113478623D01*
X149520814Y-113582225D01*
X149555433Y-113770850D01*
X149626031Y-113949159D01*
X149729918Y-114110360D01*
X149863137Y-114248312D01*
X150020613Y-114357761D01*
X150196350Y-114434539D01*
X150383652Y-114475720D01*
X150575387Y-114479736D01*
X150764249Y-114446434D01*
X150943047Y-114377083D01*
X151104969Y-114274325D01*
X151243848Y-114142072D01*
X151354394Y-113985363D01*
X151432396Y-113810167D01*
X151474884Y-113623156D01*
X151477942Y-113404112D01*
X151440693Y-113215988D01*
X151367613Y-113038682D01*
X151285000Y-112914341D01*
X151285000Y-112825158D01*
X153222700Y-110887458D01*
X155815000Y-110887458D01*
X155815000Y-111214250D01*
X155973750Y-111373000D01*
X157573000Y-111373000D01*
X157573000Y-110473750D01*
X157414250Y-110315000D01*
X156387458Y-110315000D01*
X156264777Y-110339403D01*
X156149215Y-110387270D01*
X156045211Y-110456763D01*
X155956763Y-110545211D01*
X155887270Y-110649215D01*
X155839403Y-110764777D01*
X155815000Y-110887458D01*
X153222700Y-110887458D01*
X155825158Y-108285000D01*
X155861452Y-108285000D01*
X155873106Y-108322634D01*
X155971900Y-108472559D01*
X156108550Y-108589025D01*
X156272237Y-108662810D01*
X156450000Y-108688072D01*
X158950000Y-108688072D01*
X159051121Y-108680008D01*
X159222634Y-108626894D01*
X159290000Y-108582503D01*
X159290000Y-110413473D01*
X159250785Y-110387270D01*
X159135223Y-110339403D01*
X159012542Y-110315000D01*
X157985750Y-110315000D01*
X157827000Y-110473750D01*
X157827000Y-111373000D01*
X157847000Y-111373000D01*
X157847000Y-111627000D01*
X157827000Y-111627000D01*
X157827000Y-111647000D01*
X157573000Y-111647000D01*
X157573000Y-111627000D01*
X155973750Y-111627000D01*
X155815000Y-111785750D01*
X155815000Y-112112542D01*
X155839403Y-112235223D01*
X155887270Y-112350785D01*
X155956763Y-112454789D01*
X156002793Y-112500819D01*
X155910975Y-112608550D01*
X155837190Y-112772237D01*
X155811928Y-112950000D01*
X155811928Y-114050000D01*
X155819992Y-114151121D01*
X155873106Y-114322634D01*
X155971900Y-114472559D01*
X156108550Y-114589025D01*
X156272237Y-114662810D01*
X156450000Y-114688072D01*
X156730000Y-114688072D01*
X156730000Y-118308004D01*
X156576000Y-118431823D01*
X156389706Y-118653839D01*
X156342400Y-118739889D01*
X156270178Y-118618645D01*
X156075269Y-118402412D01*
X155841920Y-118228359D01*
X155579099Y-118103175D01*
X155431890Y-118058524D01*
X155202000Y-118179845D01*
X155202000Y-119373000D01*
X155222000Y-119373000D01*
X155222000Y-119627000D01*
X155202000Y-119627000D01*
X155202000Y-119647000D01*
X154948000Y-119647000D01*
X154948000Y-119627000D01*
X154928000Y-119627000D01*
X154928000Y-119373000D01*
X154948000Y-119373000D01*
X154948000Y-118179845D01*
X154718110Y-118058524D01*
X154570901Y-118103175D01*
X154308080Y-118228359D01*
X154074731Y-118402412D01*
X153879822Y-118618645D01*
X153808077Y-118739090D01*
X153771888Y-118671029D01*
X153588713Y-118446433D01*
X153365401Y-118261694D01*
X153110461Y-118123848D01*
X152833601Y-118038146D01*
X152545367Y-118007851D01*
X152256739Y-118034118D01*
X151978709Y-118115947D01*
X151721869Y-118250220D01*
X151496000Y-118431823D01*
X151309706Y-118653839D01*
X151265502Y-118734247D01*
X151231888Y-118671029D01*
X151048713Y-118446433D01*
X150825401Y-118261694D01*
X150570461Y-118123848D01*
X150293601Y-118038146D01*
X150005367Y-118007851D01*
X149716739Y-118034118D01*
X149438709Y-118115947D01*
X149181869Y-118250220D01*
X148956000Y-118431823D01*
X148769706Y-118653839D01*
X148725502Y-118734247D01*
X148691888Y-118671029D01*
X148508713Y-118446433D01*
X148285401Y-118261694D01*
X148030461Y-118123848D01*
X147753601Y-118038146D01*
X147465367Y-118007851D01*
X147176739Y-118034118D01*
X146898709Y-118115947D01*
X146641869Y-118250220D01*
X146416000Y-118431823D01*
X146229706Y-118653839D01*
X146185502Y-118734247D01*
X146151888Y-118671029D01*
X145968713Y-118446433D01*
X145745401Y-118261694D01*
X145490461Y-118123848D01*
X145213601Y-118038146D01*
X144925367Y-118007851D01*
X144636739Y-118034118D01*
X144358709Y-118115947D01*
X144101869Y-118250220D01*
X143876000Y-118431823D01*
X143834189Y-118481651D01*
X143801894Y-118377366D01*
X143703100Y-118227441D01*
X143566450Y-118110975D01*
X143402763Y-118037190D01*
X143225000Y-118011928D01*
X141525000Y-118011928D01*
X141423879Y-118019992D01*
X141252366Y-118073106D01*
X141102441Y-118171900D01*
X140985975Y-118308550D01*
X140912190Y-118472237D01*
X140886928Y-118650000D01*
X140886928Y-120350000D01*
X140894992Y-120451121D01*
X140948106Y-120622634D01*
X141046900Y-120772559D01*
X141067364Y-120790000D01*
X140710000Y-120790000D01*
X140710000Y-116586527D01*
X140749215Y-116612730D01*
X140864777Y-116660597D01*
X140987458Y-116685000D01*
X142014250Y-116685000D01*
X142173000Y-116526250D01*
X142173000Y-115627000D01*
X142427000Y-115627000D01*
X142427000Y-116526250D01*
X142585750Y-116685000D01*
X143612542Y-116685000D01*
X143735223Y-116660597D01*
X143850785Y-116612730D01*
X143954789Y-116543237D01*
X144043237Y-116454789D01*
X144112730Y-116350785D01*
X144160597Y-116235223D01*
X144185000Y-116112542D01*
X144185000Y-115785750D01*
X144026250Y-115627000D01*
X142427000Y-115627000D01*
X142173000Y-115627000D01*
X142153000Y-115627000D01*
X142153000Y-115373000D01*
X142173000Y-115373000D01*
X142173000Y-114473750D01*
X142427000Y-114473750D01*
X142427000Y-115373000D01*
X144026250Y-115373000D01*
X144185000Y-115214250D01*
X144185000Y-114887458D01*
X144160597Y-114764777D01*
X144112730Y-114649215D01*
X144043237Y-114545211D01*
X143954789Y-114456763D01*
X143850785Y-114387270D01*
X143735223Y-114339403D01*
X143612542Y-114315000D01*
X142585750Y-114315000D01*
X142427000Y-114473750D01*
X142173000Y-114473750D01*
X142014250Y-114315000D01*
X140987458Y-114315000D01*
X140864777Y-114339403D01*
X140749215Y-114387270D01*
X140710000Y-114413473D01*
X140710000Y-110589679D01*
X140872237Y-110662810D01*
X141050000Y-110688072D01*
X143550000Y-110688072D01*
X143575852Y-110686010D01*
X144031772Y-111141930D01*
X144055433Y-111270850D01*
X144126031Y-111449159D01*
X144229918Y-111610360D01*
X144363137Y-111748312D01*
X144520613Y-111857761D01*
X144696350Y-111934539D01*
X144883652Y-111975720D01*
X145075387Y-111979736D01*
X145264249Y-111946434D01*
X145443047Y-111877083D01*
X145604969Y-111774325D01*
X145743848Y-111642072D01*
X145854394Y-111485363D01*
X145932396Y-111310167D01*
X145974884Y-111123156D01*
X145977942Y-110904112D01*
X145940693Y-110715988D01*
X145867613Y-110538682D01*
X145761485Y-110378948D01*
X145626353Y-110242869D01*
X145467364Y-110135629D01*
X145290572Y-110061313D01*
X145140708Y-110030550D01*
X144188072Y-109077914D01*
X144188072Y-108950000D01*
X144180008Y-108848879D01*
X144126894Y-108677366D01*
X144028100Y-108527441D01*
X143891450Y-108410975D01*
X143727763Y-108337190D01*
X143550000Y-108311928D01*
X141050000Y-108311928D01*
X140948879Y-108319992D01*
X140777366Y-108373106D01*
X140710000Y-108417497D01*
X140710000Y-106589679D01*
X140872237Y-106662810D01*
X141050000Y-106688072D01*
X143540240Y-106688072D01*
X143555433Y-106770850D01*
X143626031Y-106949159D01*
X143729918Y-107110360D01*
X143863137Y-107248312D01*
X144020613Y-107357761D01*
X144196350Y-107434539D01*
X144383652Y-107475720D01*
X144575387Y-107479736D01*
X144764249Y-107446434D01*
X144943047Y-107377083D01*
X145104969Y-107274325D01*
X145243848Y-107142072D01*
X145354394Y-106985363D01*
X145432396Y-106810167D01*
X145474884Y-106623156D01*
X145477942Y-106404112D01*
X145440693Y-106215988D01*
X145367613Y-106038682D01*
X145261485Y-105878948D01*
X145126353Y-105742869D01*
X144967364Y-105635629D01*
X144790572Y-105561313D01*
X144640708Y-105530550D01*
X144188072Y-105077914D01*
X144188072Y-104950000D01*
X144180008Y-104848879D01*
X144126894Y-104677366D01*
X144028100Y-104527441D01*
X143891450Y-104410975D01*
X143727763Y-104337190D01*
X143550000Y-104311928D01*
X141050000Y-104311928D01*
X140948879Y-104319992D01*
X140777366Y-104373106D01*
X140710000Y-104417497D01*
X140710000Y-102710000D01*
X155865245Y-102710000D01*
X155837190Y-102772237D01*
M02*
