G04 #@! TF.FileFunction,Legend,Top*
%FSLAX46Y46*%
G04 Gerber Fmt 4.6, Leading zero omitted, Abs format (unit mm)*
G04 Created by KiCad (PCBNEW 4.0.7) date Friday, 11 May 2018 'PMt' 12:15:21 PM*
%MOMM*%
%LPD*%
G01*
G04 APERTURE LIST*
%ADD10C,0.100000*%
%ADD11C,0.250000*%
%ADD12C,0.200000*%
%ADD13C,0.150000*%
%ADD14C,0.152400*%
G04 APERTURE END LIST*
D10*
D11*
X150607143Y-107416667D02*
X151083334Y-107416667D01*
X150511905Y-107702381D02*
X150845238Y-106702381D01*
X151178572Y-107702381D01*
X151416667Y-106702381D02*
X152083334Y-106702381D01*
X151654762Y-107702381D01*
X152988096Y-107702381D02*
X152416667Y-107702381D01*
X152702381Y-107702381D02*
X152702381Y-106702381D01*
X152607143Y-106845238D01*
X152511905Y-106940476D01*
X152416667Y-106988095D01*
X153607143Y-106702381D02*
X153702382Y-106702381D01*
X153797620Y-106750000D01*
X153845239Y-106797619D01*
X153892858Y-106892857D01*
X153940477Y-107083333D01*
X153940477Y-107321429D01*
X153892858Y-107511905D01*
X153845239Y-107607143D01*
X153797620Y-107654762D01*
X153702382Y-107702381D01*
X153607143Y-107702381D01*
X153511905Y-107654762D01*
X153464286Y-107607143D01*
X153416667Y-107511905D01*
X153369048Y-107321429D01*
X153369048Y-107083333D01*
X153416667Y-106892857D01*
X153464286Y-106797619D01*
X153511905Y-106750000D01*
X153607143Y-106702381D01*
X154845239Y-106702381D02*
X154369048Y-106702381D01*
X154321429Y-107178571D01*
X154369048Y-107130952D01*
X154464286Y-107083333D01*
X154702382Y-107083333D01*
X154797620Y-107130952D01*
X154845239Y-107178571D01*
X154892858Y-107273810D01*
X154892858Y-107511905D01*
X154845239Y-107607143D01*
X154797620Y-107654762D01*
X154702382Y-107702381D01*
X154464286Y-107702381D01*
X154369048Y-107654762D01*
X154321429Y-107607143D01*
D12*
X151000000Y-108500000D02*
X151000000Y-112000000D01*
X154500000Y-108500000D02*
X151000000Y-108500000D01*
X154500000Y-112000000D02*
X154500000Y-108500000D01*
X151000000Y-112000000D02*
X154500000Y-112000000D01*
X147500000Y-107000000D02*
X147500000Y-113000000D01*
X144500000Y-107000000D02*
X144500000Y-113000000D01*
X147500000Y-107000000D02*
G75*
G03X144500000Y-107000000I-1500000J0D01*
G01*
X144500000Y-113000000D02*
G75*
G03X147500000Y-113000000I1500000J0D01*
G01*
D13*
X142000000Y-104500000D02*
X142000000Y-102500000D01*
X158000000Y-110500000D02*
X158000000Y-108500000D01*
X158000000Y-114500000D02*
X158000000Y-117121000D01*
X142000000Y-108500000D02*
X142000000Y-106500000D01*
X142000000Y-114500000D02*
X142000000Y-110500000D01*
D14*
X141984000Y-116359000D02*
X141984000Y-117121000D01*
X141984000Y-117121000D02*
X157986000Y-117121000D01*
M02*
