M48
;DRILL file {KiCad 4.0.7} date Friday, 11 May 2018 'PMt' 12:16:03 PM
;FORMAT={-:-/ absolute / inch / decimal}
FMAT,2
INCH,TZ
T1C0.013
T2C0.039
%
G90
G05
M72
T1
X5.5709Y-4.0551
X5.5709Y-4.2323
X5.5709Y-4.3898
X5.5709Y-4.4587
X5.5709Y-4.6161
X5.6398Y-4.0551
X5.689Y-4.1929
X5.7087Y-4.0551
X5.7087Y-4.3701
X5.7559Y-4.5472
X5.7776Y-4.0551
X5.8465Y-4.0551
X5.8465Y-4.1929
X5.8465Y-4.3898
X5.8858Y-4.4291
X5.9154Y-4.0551
X5.9252Y-4.4685
X5.9843Y-4.0551
X6.0138Y-4.4193
X6.0531Y-4.0551
X6.0551Y-4.5472
X6.122Y-4.0551
X6.122Y-4.311
X6.122Y-4.3898
X6.25Y-4.311
X6.25Y-4.5276
X6.25Y-4.5965
T2
X5.6053Y-4.7047
X5.7053Y-4.7047
X5.8053Y-4.7047
X5.9053Y-4.7047
X6.0053Y-4.7047
X6.1053Y-4.7047
X6.2053Y-4.7047
T0
M30
